<?xml version="1.0" encoding="utf-8"?>
<svg width="512" height="512" version="1.1" desc="Created with imagetracer.js version 1.2.6" viewBox="73.9 48.799 373.555 400.37" xmlns="http://www.w3.org/2000/svg">
  <path fill="rgb(33,29,30)" stroke="rgb(33,29,30)" stroke-width="1" opacity="0.7058823529411765" d="M 240.5 80 L 250 80.5 L 240.5 81 L 240.5 80 Z "/>
  <path fill="rgb(33,29,30)" stroke="rgb(33,29,30)" stroke-width="1" opacity="0.7058823529411765" d="M 262.5 80 L 272 80.5 L 262.5 81 L 262.5 80 Z "/>
  <path fill="rgb(33,29,30)" stroke="rgb(33,29,30)" stroke-width="1" opacity="0.7058823529411765" d="M 231.5 81 L 236 81.5 L 231.5 82 L 231.5 81 Z "/>
  <path fill="rgb(33,29,30)" stroke="rgb(33,29,30)" stroke-width="1" opacity="0.7058823529411765" d="M 276.5 81 L 281 81.5 L 276.5 82 L 276.5 81 Z "/>
  <path fill="rgb(33,29,30)" stroke="rgb(33,29,30)" stroke-width="1" opacity="0.7058823529411765" d="M 225.5 82 L 229 82.5 L 225.5 83 L 225.5 82 Z "/>
  <path fill="rgb(33,29,30)" stroke="rgb(33,29,30)" stroke-width="1" opacity="0.7058823529411765" d="M 284.5 82 L 287 82.5 L 284.5 83 L 284.5 82 Z "/>
  <path fill="rgb(33,29,30)" stroke="rgb(33,29,30)" stroke-width="1" opacity="0.7058823529411765" d="M 220.5 83 L 223 83.5 L 220.5 84 L 220.5 83 Z "/>
  <path fill="rgb(33,29,30)" stroke="rgb(33,29,30)" stroke-width="1" opacity="0.7058823529411765" d="M 289.5 83 L 292 83.5 L 289.5 84 L 289.5 83 Z "/>
  <path fill="rgb(33,29,30)" stroke="rgb(33,29,30)" stroke-width="1" opacity="0.7058823529411765" d="M 215.5 84 L 218 84.5 L 215.5 85 L 215.5 84 Z "/>
  <path fill="rgb(33,29,30)" stroke="rgb(33,29,30)" stroke-width="1" opacity="0.7058823529411765" d="M 294.5 84 L 297 84.5 L 294.5 85 L 294.5 84 Z "/>
  <path fill="rgb(33,29,30)" stroke="rgb(33,29,30)" stroke-width="1" opacity="0.7058823529411765" d="M 211.5 85 L 214 85.5 L 211.5 86 L 211.5 85 Z "/>
  <path fill="rgb(33,29,30)" stroke="rgb(33,29,30)" stroke-width="1" opacity="0.7058823529411765" d="M 298.5 85 L 301 85.5 L 298.5 86 L 298.5 85 Z "/>
  <path fill="rgb(33,29,30)" stroke="rgb(33,29,30)" stroke-width="1" opacity="0.7058823529411765" d="M 302.5 86 L 305 86.5 L 302.5 87 L 302.5 86 Z "/>
  <path fill="rgb(33,29,30)" stroke="rgb(33,29,30)" stroke-width="1" opacity="0.7058823529411765" d="M 325.5 94 L 329 95.5 L 327.5 96 L 325.5 94 Z "/>
  <path fill="rgb(33,29,30)" stroke="rgb(33,29,30)" stroke-width="1" opacity="0.7058823529411765" d="M 183.5 95 L 185 95.5 L 181.5 97 L 181.5 96 L 183.5 95 Z "/>
  <path fill="rgb(33,29,30)" stroke="rgb(33,29,30)" stroke-width="1" opacity="0.7058823529411765" d="M 171.5 101 L 170.5 103 L 171.5 101 Z "/>
  <path fill="rgb(33,29,30)" stroke="rgb(33,29,30)" stroke-width="1" opacity="0.7058823529411765" d="M 340.5 101 L 344 103.5 L 342.5 103 L 340.5 101 Z "/>
  <path fill="rgb(33,29,30)" stroke="rgb(33,29,30)" stroke-width="1" opacity="0.7058823529411765" d="M 345.5 104 L 349 106.5 L 347.5 106 L 345.5 104 Z "/>
  <path fill="rgb(33,29,30)" stroke="rgb(33,29,30)" stroke-width="1" opacity="0.7058823529411765" d="M 164.5 105 L 163.5 107 L 164.5 105 Z "/>
  <path fill="rgb(33,29,30)" stroke="rgb(33,29,30)" stroke-width="1" opacity="0.7058823529411765" d="M 161.5 107 L 160.5 109 L 161.5 107 Z "/>
  <path fill="rgb(33,29,30)" stroke="rgb(33,29,30)" stroke-width="1" opacity="0.7058823529411765" d="M 350.5 107 L 351.5 109 L 350.5 107 Z "/>
  <path fill="rgb(33,29,30)" stroke="rgb(33,29,30)" stroke-width="1" opacity="0.7058823529411765" d="M 158.5 109 L 157.5 111 L 158.5 109 Z "/>
  <path fill="rgb(33,29,30)" stroke="rgb(33,29,30)" stroke-width="1" opacity="0.7058823529411765" d="M 353.5 109 L 354.5 111 L 353.5 109 Z "/>
  <path fill="rgb(33,29,30)" stroke="rgb(33,29,30)" stroke-width="1" opacity="0.7058823529411765" d="M 155.5 111 L 154.5 113 L 155.5 111 Z "/>
  <path fill="rgb(33,29,30)" stroke="rgb(33,29,30)" stroke-width="1" opacity="0.7058823529411765" d="M 356.5 111 L 357.5 113 L 356.5 111 Z "/>
  <path fill="rgb(33,29,30)" stroke="rgb(33,29,30)" stroke-width="1" opacity="0.7058823529411765" d="M 240.5 112 L 249 112.5 L 240.5 113 L 240.5 112 Z "/>
  <path fill="rgb(33,29,30)" stroke="rgb(33,29,30)" stroke-width="1" opacity="0.7058823529411765" d="M 263.5 112 L 272 112.5 L 263.5 113 L 263.5 112 Z "/>
  <path fill="rgb(33,29,30)" stroke="rgb(33,29,30)" stroke-width="1" opacity="0.7058823529411765" d="M 152.5 113 L 150.5 116 L 152.5 113 Z "/>
  <path fill="rgb(33,29,30)" stroke="rgb(33,29,30)" stroke-width="1" opacity="0.7058823529411765" d="M 233.5 113 L 238 113.5 L 233.5 114 L 233.5 113 Z "/>
  <path fill="rgb(33,29,30)" stroke="rgb(33,29,30)" stroke-width="1" opacity="0.7058823529411765" d="M 274.5 113 L 279 113.5 L 274.5 114 L 274.5 113 Z "/>
  <path fill="rgb(33,29,30)" stroke="rgb(33,29,30)" stroke-width="1" opacity="0.7058823529411765" d="M 359.5 113 L 361.5 116 L 359.5 113 Z "/>
  <path fill="rgb(33,29,30)" stroke="rgb(33,29,30)" stroke-width="1" opacity="0.7058823529411765" d="M 227.5 114 L 231 114.5 L 227.5 115 L 227.5 114 Z "/>
  <path fill="rgb(33,29,30)" stroke="rgb(33,29,30)" stroke-width="1" opacity="0.7058823529411765" d="M 281.5 114 L 285 114.5 L 281.5 115 L 281.5 114 Z "/>
  <path fill="rgb(33,29,30)" stroke="rgb(33,29,30)" stroke-width="1" opacity="0.7058823529411765" d="M 223.5 115 L 226 115.5 L 223.5 116 L 223.5 115 Z "/>
  <path fill="rgb(33,29,30)" stroke="rgb(33,29,30)" stroke-width="1" opacity="0.7058823529411765" d="M 286.5 115 L 289 115.5 L 286.5 116 L 286.5 115 Z "/>
  <path fill="rgb(33,29,30)" stroke="rgb(33,29,30)" stroke-width="1" opacity="0.7058823529411765" d="M 148.5 116 L 145.5 120 L 148.5 116 Z "/>
  <path fill="rgb(33,29,30)" stroke="rgb(33,29,30)" stroke-width="1" opacity="0.7058823529411765" d="M 219.5 116 L 222 116.5 L 219.5 117 L 219.5 116 Z "/>
  <path fill="rgb(33,29,30)" stroke="rgb(33,29,30)" stroke-width="1" opacity="0.7058823529411765" d="M 363.5 116 L 366.5 120 L 363.5 116 Z "/>
  <path fill="rgb(33,29,30)" stroke="rgb(33,29,30)" stroke-width="1" opacity="0.7058823529411765" d="M 294.5 117 L 297 117.5 L 294.5 118 L 294.5 117 Z "/>
  <path fill="rgb(33,29,30)" stroke="rgb(33,29,30)" stroke-width="1" opacity="0.7058823529411765" d="M 143.5 120 L 138.5 126 L 143.5 120 Z "/>
  <path fill="rgb(33,29,30)" stroke="rgb(33,29,30)" stroke-width="1" opacity="0.7058823529411765" d="M 368.5 120 L 373.5 126 L 368.5 120 Z "/>
  <path fill="rgb(33,29,30)" stroke="rgb(33,29,30)" stroke-width="1" opacity="0.7058823529411765" d="M 194.5 125 L 196 125.5 L 187.5 130 L 188.5 128 L 194.5 125 Z "/>
  <path fill="rgb(33,29,30)" stroke="rgb(33,29,30)" stroke-width="1" opacity="0.7058823529411765" d="M 316.5 125 L 325 129.5 L 323.5 129 L 316.5 126 L 316.5 125 Z "/>
  <path fill="rgb(33,29,30)" stroke="rgb(33,29,30)" stroke-width="1" opacity="0.7058823529411765" d="M 134.5 128 L 129.5 134 L 134.5 128 Z "/>
  <path fill="rgb(33,29,30)" stroke="rgb(33,29,30)" stroke-width="1" opacity="0.7058823529411765" d="M 377.5 128 L 382.5 134 L 377.5 128 Z "/>
  <path fill="rgb(33,29,30)" stroke="rgb(33,29,30)" stroke-width="1" opacity="0.7058823529411765" d="M 183.5 131 L 182.5 133 L 180.5 134 L 181.5 132 L 183.5 131 Z "/>
  <path fill="rgb(33,29,30)" stroke="rgb(33,29,30)" stroke-width="1" opacity="0.7058823529411765" d="M 328.5 131 L 332 133.5 L 330.5 133 L 328.5 131 Z "/>
  <path fill="rgb(33,29,30)" stroke="rgb(33,29,30)" stroke-width="1" opacity="0.7058823529411765" d="M 178.5 134 L 177.5 136 L 178.5 134 Z "/>
  <path fill="rgb(33,29,30)" stroke="rgb(33,29,30)" stroke-width="1" opacity="0.7058823529411765" d="M 333.5 134 L 334.5 136 L 333.5 134 Z "/>
  <path fill="rgb(33,29,30)" stroke="rgb(33,29,30)" stroke-width="1" opacity="0.7058823529411765" d="M 175.5 136 L 174.5 138 L 175.5 136 Z "/>
  <path fill="rgb(33,29,30)" stroke="rgb(33,29,30)" stroke-width="1" opacity="0.7058823529411765" d="M 336.5 136 L 337.5 138 L 336.5 136 Z "/>
  <path fill="rgb(33,29,30)" stroke="rgb(33,29,30)" stroke-width="1" opacity="0.7058823529411765" d="M 125.5 138 L 120.5 144 L 125.5 138 Z "/>
  <path fill="rgb(33,29,30)" stroke="rgb(33,29,30)" stroke-width="1" opacity="0.7058823529411765" d="M 172.5 138 L 170.5 141 L 172.5 138 Z "/>
  <path fill="rgb(33,29,30)" stroke="rgb(33,29,30)" stroke-width="1" opacity="0.7058823529411765" d="M 339.5 138 L 341.5 141 L 339.5 138 Z "/>
  <path fill="rgb(33,29,30)" stroke="rgb(33,29,30)" stroke-width="1" opacity="0.7058823529411765" d="M 386.5 138 L 391.5 144 L 386.5 138 Z "/>
  <path fill="rgb(33,29,30)" stroke="rgb(33,29,30)" stroke-width="1" opacity="0.7058823529411765" d="M 168.5 141 L 166.5 144 L 168.5 141 Z "/>
  <path fill="rgb(33,29,30)" stroke="rgb(33,29,30)" stroke-width="1" opacity="0.7058823529411765" d="M 343.5 141 L 345.5 144 L 343.5 141 Z "/>
  <path fill="rgb(33,29,30)" stroke="rgb(33,29,30)" stroke-width="1" opacity="0.7058823529411765" d="M 164.5 144 L 159.5 150 L 164.5 144 Z "/>
  <path fill="rgb(33,29,30)" stroke="rgb(33,29,30)" stroke-width="1" opacity="0.7058823529411765" d="M 347.5 144 L 352.5 150 L 347.5 144 Z "/>
  <path fill="rgb(33,29,30)" stroke="rgb(33,29,30)" stroke-width="1" opacity="0.7058823529411765" d="M 119.5 145 L 116.5 149 L 119.5 145 Z "/>
  <path fill="rgb(33,29,30)" stroke="rgb(33,29,30)" stroke-width="1" opacity="0.7058823529411765" d="M 392.5 145 L 395.5 149 L 392.5 145 Z "/>
  <path fill="rgb(33,29,30)" stroke="rgb(33,29,30)" stroke-width="1" opacity="0.7058823529411765" d="M 115.5 150 L 113.5 153 L 115.5 150 Z "/>
  <path fill="rgb(33,29,30)" stroke="rgb(33,29,30)" stroke-width="1" opacity="0.7058823529411765" d="M 396.5 150 L 398.5 153 L 396.5 150 Z "/>
  <path fill="rgb(33,29,30)" stroke="rgb(33,29,30)" stroke-width="1" opacity="0.7058823529411765" d="M 112.5 154 L 111.5 156 L 112.5 154 Z "/>
  <path fill="rgb(33,29,30)" stroke="rgb(33,29,30)" stroke-width="1" opacity="0.7058823529411765" d="M 399.5 154 L 400.5 156 L 399.5 154 Z "/>
  <path fill="rgb(33,29,30)" stroke="rgb(33,29,30)" stroke-width="1" opacity="0.7058823529411765" d="M 110.5 157 L 109.5 159 L 110.5 157 Z "/>
  <path fill="rgb(33,29,30)" stroke="rgb(33,29,30)" stroke-width="1" opacity="0.7058823529411765" d="M 401.5 157 L 402.5 159 L 401.5 157 Z "/>
  <path fill="rgb(33,29,30)" stroke="rgb(33,29,30)" stroke-width="1" opacity="0.7058823529411765" d="M 149.5 159 L 144.5 165 L 149.5 159 Z "/>
  <path fill="rgb(33,29,30)" stroke="rgb(33,29,30)" stroke-width="1" opacity="0.7058823529411765" d="M 362.5 159 L 367.5 165 L 362.5 159 Z "/>
  <path fill="rgb(33,29,30)" stroke="rgb(33,29,30)" stroke-width="1" opacity="0.7058823529411765" d="M 108.5 160 L 107.5 162 L 108.5 160 Z "/>
  <path fill="rgb(33,29,30)" stroke="rgb(33,29,30)" stroke-width="1" opacity="0.7058823529411765" d="M 403.5 160 L 404.5 162 L 403.5 160 Z "/>
  <path fill="rgb(33,29,30)" stroke="rgb(33,29,30)" stroke-width="1" opacity="0.7058823529411765" d="M 106.5 163 L 106 164.5 L 104.5 167 L 105 165.5 L 106.5 163 Z "/>
  <path fill="rgb(33,29,30)" stroke="rgb(33,29,30)" stroke-width="1" opacity="0.7058823529411765" d="M 405.5 163 L 406.5 165 L 405.5 163 Z "/>
  <path fill="rgb(33,29,30)" stroke="rgb(33,29,30)" stroke-width="1" opacity="0.7058823529411765" d="M 143.5 166 L 141.5 169 L 143.5 166 Z "/>
  <path fill="rgb(33,29,30)" stroke="rgb(33,29,30)" stroke-width="1" opacity="0.7058823529411765" d="M 368.5 166 L 370.5 169 L 368.5 166 Z "/>
  <path fill="rgb(33,29,30)" stroke="rgb(33,29,30)" stroke-width="1" opacity="0.7058823529411765" d="M 102.5 170 L 101.5 172 L 102.5 170 Z "/>
  <path fill="rgb(33,29,30)" stroke="rgb(33,29,30)" stroke-width="1" opacity="0.7058823529411765" d="M 140.5 170 L 138.5 173 L 140.5 170 Z "/>
  <path fill="rgb(33,29,30)" stroke="rgb(33,29,30)" stroke-width="1" opacity="0.7058823529411765" d="M 371.5 170 L 373.5 173 L 371.5 170 Z "/>
  <path fill="rgb(33,29,30)" stroke="rgb(33,29,30)" stroke-width="1" opacity="0.7058823529411765" d="M 409.5 170 L 410.5 172 L 409.5 170 Z "/>
  <path fill="rgb(33,29,30)" stroke="rgb(33,29,30)" stroke-width="1" opacity="0.7058823529411765" d="M 137.5 174 L 136.5 176 L 137.5 174 Z "/>
  <path fill="rgb(33,29,30)" stroke="rgb(33,29,30)" stroke-width="1" opacity="0.7058823529411765" d="M 374.5 174 L 375.5 176 L 374.5 174 Z "/>
  <path fill="rgb(33,29,30)" stroke="rgb(33,29,30)" stroke-width="1" opacity="0.7058823529411765" d="M 135.5 177 L 134.5 179 L 135.5 177 Z "/>
  <path fill="rgb(33,29,30)" stroke="rgb(33,29,30)" stroke-width="1" opacity="0.7058823529411765" d="M 376.5 177 L 377.5 179 L 376.5 177 Z "/>
  <path fill="rgb(33,29,30)" stroke="rgb(33,29,30)" stroke-width="1" opacity="0.7058823529411765" d="M 133.5 180 L 133 181.5 L 131.5 184 L 132 182.5 L 133.5 180 Z "/>
  <path fill="rgb(33,29,30)" stroke="rgb(33,29,30)" stroke-width="1" opacity="0.7058823529411765" d="M 378.5 180 L 381 183.5 L 379 182.5 L 378.5 180 Z "/>
  <path fill="rgb(33,29,30)" stroke="rgb(33,29,30)" stroke-width="1" opacity="0.7058823529411765" d="M 96.5 181 L 97 182.5 L 95.5 185 L 95 183.5 L 96.5 181 Z "/>
  <path fill="rgb(33,29,30)" stroke="rgb(33,29,30)" stroke-width="1" opacity="0.7058823529411765" d="M 415.5 181 L 418 186.5 L 417 186.5 L 415.5 181 Z "/>
  <path fill="rgb(33,29,30)" stroke="rgb(33,29,30)" stroke-width="1" opacity="0.7058823529411765" d="M 129.5 187 L 129 188.5 L 125.5 196 L 125 194.5 L 129.5 187 Z "/>
  <path fill="rgb(33,29,30)" stroke="rgb(33,29,30)" stroke-width="1" opacity="0.7058823529411765" d="M 382.5 187 L 387 195.5 L 386 195.5 L 382.5 187 Z "/>
  <path fill="rgb(33,29,30)" stroke="rgb(33,29,30)" stroke-width="1" opacity="0.7058823529411765" d="M 85.5 211 L 86 213.5 L 85 213.5 L 85.5 211 Z "/>
  <path fill="rgb(33,29,30)" stroke="rgb(33,29,30)" stroke-width="1" opacity="0.7058823529411765" d="M 426.5 211 L 427 213.5 L 426 213.5 L 426.5 211 Z "/>
  <path fill="rgb(33,29,30)" stroke="rgb(33,29,30)" stroke-width="1" opacity="0.7058823529411765" d="M 84.5 215 L 85 217.5 L 84 217.5 L 84.5 215 Z "/>
  <path fill="rgb(33,29,30)" stroke="rgb(33,29,30)" stroke-width="1" opacity="0.7058823529411765" d="M 117.5 215 L 118 217.5 L 117 217.5 L 117.5 215 Z "/>
  <path fill="rgb(33,29,30)" stroke="rgb(33,29,30)" stroke-width="1" opacity="0.7058823529411765" d="M 394.5 215 L 395 217.5 L 394 217.5 L 394.5 215 Z "/>
  <path fill="rgb(33,29,30)" stroke="rgb(33,29,30)" stroke-width="1" opacity="0.7058823529411765" d="M 427.5 215 L 428 217.5 L 427 217.5 L 427.5 215 Z "/>
  <path fill="rgb(33,29,30)" stroke="rgb(33,29,30)" stroke-width="1" opacity="0.7058823529411765" d="M 83.5 220 L 84 222.5 L 83 222.5 L 83.5 220 Z "/>
  <path fill="rgb(33,29,30)" stroke="rgb(33,29,30)" stroke-width="1" opacity="0.7058823529411765" d="M 428.5 220 L 429 222.5 L 428 222.5 L 428.5 220 Z "/>
  <path fill="rgb(33,29,30)" stroke="rgb(33,29,30)" stroke-width="1" opacity="0.7058823529411765" d="M 115.5 223 L 116 225.5 L 115 225.5 L 115.5 223 Z "/>
  <path fill="rgb(33,29,30)" stroke="rgb(33,29,30)" stroke-width="1" opacity="0.7058823529411765" d="M 396.5 223 L 397 225.5 L 396 225.5 L 396.5 223 Z "/>
  <path fill="rgb(33,29,30)" stroke="rgb(33,29,30)" stroke-width="1" opacity="0.7058823529411765" d="M 82.5 225 L 83 228.5 L 82 228.5 L 82.5 225 Z "/>
  <path fill="rgb(33,29,30)" stroke="rgb(33,29,30)" stroke-width="1" opacity="0.7058823529411765" d="M 429.5 225 L 430 228.5 L 429 228.5 L 429.5 225 Z "/>
  <path fill="rgb(33,29,30)" stroke="rgb(33,29,30)" stroke-width="1" opacity="0.7058823529411765" d="M 114.5 227 L 115 230.5 L 114 230.5 L 114.5 227 Z "/>
  <path fill="rgb(33,29,30)" stroke="rgb(33,29,30)" stroke-width="1" opacity="0.7058823529411765" d="M 397.5 227 L 398 230.5 L 397 230.5 L 397.5 227 Z "/>
  <path fill="rgb(33,29,30)" stroke="rgb(33,29,30)" stroke-width="1" opacity="0.7058823529411765" d="M 81.5 231 L 82 235.5 L 81 235.5 L 81.5 231 Z "/>
  <path fill="rgb(33,29,30)" stroke="rgb(33,29,30)" stroke-width="1" opacity="0.7058823529411765" d="M 430.5 231 L 431 235.5 L 430 235.5 L 430.5 231 Z "/>
  <path fill="rgb(33,29,30)" stroke="rgb(33,29,30)" stroke-width="1" opacity="0.7058823529411765" d="M 113.5 233 L 114 237.5 L 113 237.5 L 113.5 233 Z "/>
  <path fill="rgb(33,29,30)" stroke="rgb(33,29,30)" stroke-width="1" opacity="0.7058823529411765" d="M 398.5 233 L 399 237.5 L 398 237.5 L 398.5 233 Z "/>
  <path fill="rgb(33,29,30)" stroke="rgb(33,29,30)" stroke-width="1" opacity="0.7058823529411765" d="M 80.5 240 L 81 249.5 L 80 249.5 L 80.5 240 Z "/>
  <path fill="rgb(33,29,30)" stroke="rgb(33,29,30)" stroke-width="1" opacity="0.7058823529411765" d="M 112.5 240 L 113 247.5 L 112 247.5 L 112.5 240 Z "/>
  <path fill="rgb(33,29,30)" stroke="rgb(33,29,30)" stroke-width="1" opacity="0.7058823529411765" d="M 399.5 240 L 400 247.5 L 399 247.5 L 399.5 240 Z "/>
  <path fill="rgb(33,29,30)" stroke="rgb(33,29,30)" stroke-width="1" opacity="0.7058823529411765" d="M 431.5 240 L 432 250.5 L 431 250.5 L 431.5 240 Z "/>
  <path fill="rgb(33,29,30)" stroke="rgb(33,29,30)" stroke-width="1" opacity="0.7058823529411765" d="M 80.5 262 L 81 271.5 L 80 271.5 L 80.5 262 Z "/>
  <path fill="rgb(33,29,30)" stroke="rgb(33,29,30)" stroke-width="1" opacity="0.7058823529411765" d="M 399.5 263 L 400 270.5 L 399 270.5 L 399.5 263 Z "/>
  <path fill="rgb(33,29,30)" stroke="rgb(33,29,30)" stroke-width="1" opacity="0.7058823529411765" d="M 431.5 263 L 432 271.5 L 431 271.5 L 431.5 263 Z "/>
  <path fill="rgb(33,29,30)" stroke="rgb(33,29,30)" stroke-width="1" opacity="0.7058823529411765" d="M 112.5 264 L 113 271.5 L 112 271.5 L 112.5 264 Z "/>
  <path fill="rgb(33,29,30)" stroke="rgb(33,29,30)" stroke-width="1" opacity="0.7058823529411765" d="M 113.5 274 L 114 278.5 L 113 278.5 L 113.5 274 Z "/>
  <path fill="rgb(33,29,30)" stroke="rgb(33,29,30)" stroke-width="1" opacity="0.7058823529411765" d="M 398.5 274 L 399 277.5 L 398 277.5 L 398.5 274 Z "/>
  <path fill="rgb(33,29,30)" stroke="rgb(33,29,30)" stroke-width="1" opacity="0.7058823529411765" d="M 81.5 276 L 82 280.5 L 81 280.5 L 81.5 276 Z "/>
  <path fill="rgb(33,29,30)" stroke="rgb(33,29,30)" stroke-width="1" opacity="0.7058823529411765" d="M 430.5 276 L 431 280.5 L 430 280.5 L 430.5 276 Z "/>
  <path fill="rgb(33,29,30)" stroke="rgb(33,29,30)" stroke-width="1" opacity="0.7058823529411765" d="M 114.5 281 L 115 284.5 L 114 284.5 L 114.5 281 Z "/>
  <path fill="rgb(33,29,30)" stroke="rgb(33,29,30)" stroke-width="1" opacity="0.7058823529411765" d="M 397.5 281 L 398 283.5 L 397 283.5 L 397.5 281 Z "/>
  <path fill="rgb(33,29,30)" stroke="rgb(33,29,30)" stroke-width="1" opacity="0.7058823529411765" d="M 82.5 283 L 83 286.5 L 82 286.5 L 82.5 283 Z "/>
  <path fill="rgb(33,29,30)" stroke="rgb(33,29,30)" stroke-width="1" opacity="0.7058823529411765" d="M 429.5 283 L 430 286.5 L 429 286.5 L 429.5 283 Z "/>
  <path fill="rgb(33,29,30)" stroke="rgb(33,29,30)" stroke-width="1" opacity="0.7058823529411765" d="M 115.5 286 L 116 288.5 L 115 288.5 L 115.5 286 Z "/>
  <path fill="rgb(33,29,30)" stroke="rgb(33,29,30)" stroke-width="1" opacity="0.7058823529411765" d="M 396.5 286 L 397 288.5 L 396 288.5 L 396.5 286 Z "/>
  <path fill="rgb(33,29,30)" stroke="rgb(33,29,30)" stroke-width="1" opacity="0.7058823529411765" d="M 83.5 289 L 84 291.5 L 83 291.5 L 83.5 289 Z "/>
  <path fill="rgb(33,29,30)" stroke="rgb(33,29,30)" stroke-width="1" opacity="0.7058823529411765" d="M 428.5 289 L 429 291.5 L 428 291.5 L 428.5 289 Z "/>
  <path fill="rgb(33,29,30)" stroke="rgb(33,29,30)" stroke-width="1" opacity="0.7058823529411765" d="M 395.5 290 L 396 292.5 L 395 292.5 L 395.5 290 Z "/>
  <path fill="rgb(33,29,30)" stroke="rgb(33,29,30)" stroke-width="1" opacity="0.7058823529411765" d="M 84.5 294 L 85 296.5 L 84 296.5 L 84.5 294 Z "/>
  <path fill="rgb(33,29,30)" stroke="rgb(33,29,30)" stroke-width="1" opacity="0.7058823529411765" d="M 117.5 294 L 118 296.5 L 117 296.5 L 117.5 294 Z "/>
  <path fill="rgb(33,29,30)" stroke="rgb(33,29,30)" stroke-width="1" opacity="0.7058823529411765" d="M 427.5 294 L 428 296.5 L 427 296.5 L 427.5 294 Z "/>
  <path fill="rgb(33,29,30)" stroke="rgb(33,29,30)" stroke-width="1" opacity="0.7058823529411765" d="M 393.5 297 L 394 299.5 L 393 299.5 L 393.5 297 Z "/>
  <path fill="rgb(33,29,30)" stroke="rgb(33,29,30)" stroke-width="1" opacity="0.7058823529411765" d="M 85.5 298 L 86 300.5 L 85 300.5 L 85.5 298 Z "/>
  <path fill="rgb(33,29,30)" stroke="rgb(33,29,30)" stroke-width="1" opacity="0.7058823529411765" d="M 426.5 298 L 427 300.5 L 426 300.5 L 426.5 298 Z "/>
  <path fill="rgb(33,29,30)" stroke="rgb(33,29,30)" stroke-width="1" opacity="0.7058823529411765" d="M 424.5 305 L 425 307.5 L 424 307.5 L 424.5 305 Z "/>
  <path fill="rgb(33,29,30)" stroke="rgb(33,29,30)" stroke-width="1" opacity="0.7058823529411765" d="M 389.5 309 L 390 310.5 L 388.5 313 L 388 311.5 L 389.5 309 Z "/>
  <path fill="rgb(33,29,30)" stroke="rgb(33,29,30)" stroke-width="1" opacity="0.7058823529411765" d="M 125.5 316 L 130 324.5 L 128 323.5 L 125.5 316 Z "/>
  <path fill="rgb(33,29,30)" stroke="rgb(33,29,30)" stroke-width="1" opacity="0.7058823529411765" d="M 385.5 318 L 386 319.5 L 383.5 323 L 384 321.5 L 385.5 318 Z "/>
  <path fill="rgb(33,29,30)" stroke="rgb(33,29,30)" stroke-width="1" opacity="0.7058823529411765" d="M 94.5 325 L 97 330.5 L 96 330.5 L 94.5 325 Z "/>
  <path fill="rgb(33,29,30)" stroke="rgb(33,29,30)" stroke-width="1" opacity="0.7058823529411765" d="M 416.5 327 L 417 328.5 L 415.5 331 L 415 329.5 L 416.5 327 Z "/>
  <path fill="rgb(33,29,30)" stroke="rgb(33,29,30)" stroke-width="1" opacity="0.7058823529411765" d="M 131.5 328 L 134 331.5 L 132 330.5 L 131.5 328 Z "/>
  <path fill="rgb(33,29,30)" stroke="rgb(33,29,30)" stroke-width="1" opacity="0.7058823529411765" d="M 379.5 332 L 380 336.5 L 379 336.5 L 379.5 332 Z "/>
  <path fill="rgb(33,29,30)" stroke="rgb(33,29,30)" stroke-width="1" opacity="0.7058823529411765" d="M 134.5 333 L 135.5 335 L 134.5 333 Z "/>
  <path fill="rgb(33,29,30)" stroke="rgb(33,29,30)" stroke-width="1" opacity="0.7058823529411765" d="M 136.5 336 L 137.5 338 L 136.5 336 Z "/>
  <path fill="rgb(33,29,30)" stroke="rgb(33,29,30)" stroke-width="1" opacity="0.7058823529411765" d="M 138.5 339 L 140.5 342 L 138.5 339 Z "/>
  <path fill="rgb(33,29,30)" stroke="rgb(33,29,30)" stroke-width="1" opacity="0.7058823529411765" d="M 413.5 339 L 414 341.5 L 413 341.5 L 413.5 339 Z "/>
  <path fill="rgb(33,29,30)" stroke="rgb(33,29,30)" stroke-width="1" opacity="0.7058823529411765" d="M 101.5 340 L 102.5 342 L 101.5 340 Z "/>
  <path fill="rgb(33,29,30)" stroke="rgb(33,29,30)" stroke-width="1" opacity="0.7058823529411765" d="M 141.5 343 L 143.5 346 L 141.5 343 Z "/>
  <path fill="rgb(33,29,30)" stroke="rgb(33,29,30)" stroke-width="1" opacity="0.7058823529411765" d="M 414.5 343 L 415 345.5 L 414 345.5 L 414.5 343 Z "/>
  <path fill="rgb(33,29,30)" stroke="rgb(33,29,30)" stroke-width="1" opacity="0.7058823529411765" d="M 104.5 345 L 107 348.5 L 105 347.5 L 104.5 345 Z "/>
  <path fill="rgb(33,29,30)" stroke="rgb(33,29,30)" stroke-width="1" opacity="0.7058823529411765" d="M 144.5 347 L 149.5 353 L 144.5 347 Z "/>
  <path fill="rgb(33,29,30)" stroke="rgb(33,29,30)" stroke-width="1" opacity="0.7058823529411765" d="M 415.5 347 L 416 349.5 L 415 349.5 L 415.5 347 Z "/>
  <path fill="rgb(33,29,30)" stroke="rgb(33,29,30)" stroke-width="1" opacity="0.7058823529411765" d="M 107.5 350 L 108.5 352 L 107.5 350 Z "/>
  <path fill="rgb(33,29,30)" stroke="rgb(33,29,30)" stroke-width="1" opacity="0.7058823529411765" d="M 416.5 351 L 417 353.5 L 416 353.5 L 416.5 351 Z "/>
  <path fill="rgb(33,29,30)" stroke="rgb(33,29,30)" stroke-width="1" opacity="0.7058823529411765" d="M 109.5 353 L 110.5 355 L 109.5 353 Z "/>
  <path fill="rgb(33,29,30)" stroke="rgb(33,29,30)" stroke-width="1" opacity="0.7058823529411765" d="M 417.5 355 L 418 357.5 L 417 357.5 L 417.5 355 Z "/>
  <path fill="rgb(33,29,30)" stroke="rgb(33,29,30)" stroke-width="1" opacity="0.7058823529411765" d="M 111.5 356 L 112.5 358 L 111.5 356 Z "/>
  <path fill="rgb(33,29,30)" stroke="rgb(33,29,30)" stroke-width="1" opacity="0.7058823529411765" d="M 113.5 359 L 115.5 362 L 113.5 359 Z "/>
  <path fill="rgb(33,29,30)" stroke="rgb(33,29,30)" stroke-width="1" opacity="0.7058823529411765" d="M 418.5 359 L 419 361.5 L 418 361.5 L 418.5 359 Z "/>
  <path fill="rgb(33,29,30)" stroke="rgb(33,29,30)" stroke-width="1" opacity="0.7058823529411765" d="M 159.5 362 L 164.5 368 L 159.5 362 Z "/>
  <path fill="rgb(33,29,30)" stroke="rgb(33,29,30)" stroke-width="1" opacity="0.7058823529411765" d="M 116.5 363 L 119.5 367 L 116.5 363 Z "/>
  <path fill="rgb(33,29,30)" stroke="rgb(33,29,30)" stroke-width="1" opacity="0.7058823529411765" d="M 419.5 363 L 420 365.5 L 419 365.5 L 419.5 363 Z "/>
  <path fill="rgb(33,29,30)" stroke="rgb(33,29,30)" stroke-width="1" opacity="0.7058823529411765" d="M 420.5 367 L 421 369.5 L 420 369.5 L 420.5 367 Z "/>
  <path fill="rgb(33,29,30)" stroke="rgb(33,29,30)" stroke-width="1" opacity="0.7058823529411765" d="M 120.5 368 L 125.5 374 L 120.5 368 Z "/>
  <path fill="rgb(33,29,30)" stroke="rgb(33,29,30)" stroke-width="1" opacity="0.7058823529411765" d="M 166.5 368 L 168.5 371 L 166.5 368 Z "/>
  <path fill="rgb(33,29,30)" stroke="rgb(33,29,30)" stroke-width="1" opacity="0.7058823529411765" d="M 170.5 371 L 172.5 374 L 170.5 371 Z "/>
  <path fill="rgb(33,29,30)" stroke="rgb(33,29,30)" stroke-width="1" opacity="0.7058823529411765" d="M 421.5 371 L 422 373.5 L 421 373.5 L 421.5 371 Z "/>
  <path fill="rgb(33,29,30)" stroke="rgb(33,29,30)" stroke-width="1" opacity="0.7058823529411765" d="M 174.5 374 L 175.5 376 L 174.5 374 Z "/>
  <path fill="rgb(33,29,30)" stroke="rgb(33,29,30)" stroke-width="1" opacity="0.7058823529411765" d="M 422.5 375 L 423 377.5 L 422 377.5 L 422.5 375 Z "/>
  <path fill="rgb(33,29,30)" stroke="rgb(33,29,30)" stroke-width="1" opacity="0.7058823529411765" d="M 177.5 376 L 178.5 378 L 177.5 376 Z "/>
  <path fill="rgb(33,29,30)" stroke="rgb(33,29,30)" stroke-width="1" opacity="0.7058823529411765" d="M 129.5 378 L 134.5 384 L 129.5 378 Z "/>
  <path fill="rgb(33,29,30)" stroke="rgb(33,29,30)" stroke-width="1" opacity="0.7058823529411765" d="M 180.5 378 L 184 380.5 L 182.5 380 L 180.5 378 Z "/>
  <path fill="rgb(33,29,30)" stroke="rgb(33,29,30)" stroke-width="1" opacity="0.7058823529411765" d="M 332.5 379 L 337 379.5 L 332.5 380 L 332.5 379 Z "/>
  <path fill="rgb(33,29,30)" stroke="rgb(33,29,30)" stroke-width="1" opacity="0.7058823529411765" d="M 187.5 382 L 196 386.5 L 194.5 387 L 188.5 384 L 187.5 382 Z "/>
  <path fill="rgb(33,29,30)" stroke="rgb(33,29,30)" stroke-width="1" opacity="0.7058823529411765" d="M 322.5 383 L 321.5 385 L 318.5 386 L 318.5 385 L 322.5 383 Z "/>
  <path fill="rgb(33,29,30)" stroke="rgb(33,29,30)" stroke-width="1" opacity="0.7058823529411765" d="M 138.5 386 L 143.5 392 L 138.5 386 Z "/>
  <path fill="rgb(33,29,30)" stroke="rgb(33,29,30)" stroke-width="1" opacity="0.7058823529411765" d="M 311.5 388 L 313 388.5 L 309.5 390 L 309.5 389 L 311.5 388 Z "/>
  <path fill="rgb(33,29,30)" stroke="rgb(33,29,30)" stroke-width="1" opacity="0.7058823529411765" d="M 393.5 391 L 394 394 L 391 393.5 L 393 393 L 393.5 391 Z "/>
  <path fill="rgb(33,29,30)" stroke="rgb(33,29,30)" stroke-width="1" opacity="0.7058823529411765" d="M 145.5 392 L 148.5 396 L 145.5 392 Z "/>
  <path fill="rgb(33,29,30)" stroke="rgb(33,29,30)" stroke-width="1" opacity="0.7058823529411765" d="M 297.5 393 L 300 393.5 L 297.5 394 L 297.5 393 Z "/>
  <path fill="rgb(33,29,30)" stroke="rgb(33,29,30)" stroke-width="1" opacity="0.7058823529411765" d="M 219.5 395 L 222 395.5 L 219.5 396 L 219.5 395 Z "/>
  <path fill="rgb(33,29,30)" stroke="rgb(33,29,30)" stroke-width="1" opacity="0.7058823529411765" d="M 290.5 395 L 293 395.5 L 290.5 396 L 290.5 395 Z "/>
  <path fill="rgb(33,29,30)" stroke="rgb(33,29,30)" stroke-width="1" opacity="0.7058823529411765" d="M 150.5 396 L 152.5 399 L 150.5 396 Z "/>
  <path fill="rgb(33,29,30)" stroke="rgb(33,29,30)" stroke-width="1" opacity="0.7058823529411765" d="M 223.5 396 L 226 396.5 L 223.5 397 L 223.5 396 Z "/>
  <path fill="rgb(33,29,30)" stroke="rgb(33,29,30)" stroke-width="1" opacity="0.7058823529411765" d="M 286.5 396 L 289 396.5 L 286.5 397 L 286.5 396 Z "/>
  <path fill="rgb(33,29,30)" stroke="rgb(33,29,30)" stroke-width="1" opacity="0.7058823529411765" d="M 227.5 397 L 231 397.5 L 227.5 398 L 227.5 397 Z "/>
  <path fill="rgb(33,29,30)" stroke="rgb(33,29,30)" stroke-width="1" opacity="0.7058823529411765" d="M 281.5 397 L 284 397.5 L 281.5 398 L 281.5 397 Z "/>
  <path fill="rgb(33,29,30)" stroke="rgb(33,29,30)" stroke-width="1" opacity="0.7058823529411765" d="M 233.5 398 L 238 398.5 L 233.5 399 L 233.5 398 Z "/>
  <path fill="rgb(33,29,30)" stroke="rgb(33,29,30)" stroke-width="1" opacity="0.7058823529411765" d="M 274.5 398 L 278 398.5 L 274.5 399 L 274.5 398 Z "/>
  <path fill="rgb(33,29,30)" stroke="rgb(33,29,30)" stroke-width="1" opacity="0.7058823529411765" d="M 154.5 399 L 155.5 401 L 154.5 399 Z "/>
  <path fill="rgb(33,29,30)" stroke="rgb(33,29,30)" stroke-width="1" opacity="0.7058823529411765" d="M 240.5 399 L 248 399.5 L 240.5 400 L 240.5 399 Z "/>
  <path fill="rgb(33,29,30)" stroke="rgb(33,29,30)" stroke-width="1" opacity="0.7058823529411765" d="M 263.5 399 L 271 399.5 L 263.5 400 L 263.5 399 Z "/>
  <path fill="rgb(33,29,30)" stroke="rgb(33,29,30)" stroke-width="1" opacity="0.7058823529411765" d="M 157.5 401 L 158.5 403 L 157.5 401 Z "/>
  <path fill="rgb(33,29,30)" stroke="rgb(33,29,30)" stroke-width="1" opacity="0.7058823529411765" d="M 160.5 403 L 161.5 405 L 160.5 403 Z "/>
  <path fill="rgb(33,29,30)" stroke="rgb(33,29,30)" stroke-width="1" opacity="0.7058823529411765" d="M 163.5 405 L 167 407.5 L 165.5 407 L 163.5 405 Z "/>
  <path fill="rgb(33,29,30)" stroke="rgb(33,29,30)" stroke-width="1" opacity="0.7058823529411765" d="M 170.5 409 L 171.5 411 L 170.5 409 Z "/>
  <path fill="rgb(33,29,30)" stroke="rgb(33,29,30)" stroke-width="1" opacity="0.7058823529411765" d="M 431.5 411 L 432 413.5 L 431 413.5 L 431.5 411 Z "/>
  <path fill="rgb(33,29,30)" stroke="rgb(33,29,30)" stroke-width="1" opacity="0.7058823529411765" d="M 339.5 413 L 342 413.5 L 339.5 414 L 339.5 413 Z "/>
  <path fill="rgb(33,29,30)" stroke="rgb(33,29,30)" stroke-width="1" opacity="0.7058823529411765" d="M 181.5 415 L 185 416.5 L 183.5 417 L 181.5 415 Z "/>
  <path fill="rgb(33,29,30)" stroke="rgb(33,29,30)" stroke-width="1" opacity="0.7058823529411765" d="M 329.5 415 L 331 415.5 L 327.5 417 L 327.5 416 L 329.5 415 Z "/>
  <path fill="rgb(33,29,30)" stroke="rgb(33,29,30)" stroke-width="1" opacity="0.7058823529411765" d="M 347.5 415 L 350 415.5 L 347.5 416 L 347.5 415 Z "/>
  <path fill="rgb(33,29,30)" stroke="rgb(33,29,30)" stroke-width="1" opacity="0.7058823529411765" d="M 431.5 418 L 432 420.5 L 431 420.5 L 431.5 418 Z "/>
  <path fill="rgb(33,29,30)" stroke="rgb(33,29,30)" stroke-width="1" opacity="0.7058823529411765" d="M 317.5 420 L 319 420.5 L 315.5 422 L 315.5 421 L 317.5 420 Z "/>
  <path fill="rgb(33,29,30)" stroke="rgb(33,29,30)" stroke-width="1" opacity="0.7058823529411765" d="M 379.5 423 L 382 423.5 L 379.5 424 L 379.5 423 Z "/>
  <path fill="rgb(33,29,30)" stroke="rgb(33,29,30)" stroke-width="1" opacity="0.7058823529411765" d="M 305.5 424 L 308 424.5 L 305.5 425 L 305.5 424 Z "/>
  <path fill="rgb(33,29,30)" stroke="rgb(33,29,30)" stroke-width="1" opacity="0.7058823529411765" d="M 429.5 424 L 428.5 426 L 429.5 424 Z "/>
  <path fill="rgb(33,29,30)" stroke="rgb(33,29,30)" stroke-width="1" opacity="0.7058823529411765" d="M 211.5 426 L 214 426.5 L 211.5 427 L 211.5 426 Z "/>
  <path fill="rgb(33,29,30)" stroke="rgb(33,29,30)" stroke-width="1" opacity="0.7058823529411765" d="M 298.5 426 L 301 426.5 L 298.5 427 L 298.5 426 Z "/>
  <path fill="rgb(33,29,30)" stroke="rgb(33,29,30)" stroke-width="1" opacity="0.7058823529411765" d="M 215.5 427 L 218 427.5 L 215.5 428 L 215.5 427 Z "/>
  <path fill="rgb(33,29,30)" stroke="rgb(33,29,30)" stroke-width="1" opacity="0.7058823529411765" d="M 294.5 427 L 297 427.5 L 294.5 428 L 294.5 427 Z "/>
  <path fill="rgb(33,29,30)" stroke="rgb(33,29,30)" stroke-width="1" opacity="0.7058823529411765" d="M 220.5 428 L 223 428.5 L 220.5 429 L 220.5 428 Z "/>
  <path fill="rgb(33,29,30)" stroke="rgb(33,29,30)" stroke-width="1" opacity="0.7058823529411765" d="M 289.5 428 L 292 428.5 L 289.5 429 L 289.5 428 Z "/>
  <path fill="rgb(33,29,30)" stroke="rgb(33,29,30)" stroke-width="1" opacity="0.7058823529411765" d="M 425.5 428 L 424.5 430 L 425.5 428 Z "/>
  <path fill="rgb(33,29,30)" stroke="rgb(33,29,30)" stroke-width="1" opacity="0.7058823529411765" d="M 225.5 429 L 229 429.5 L 225.5 430 L 225.5 429 Z "/>
  <path fill="rgb(33,29,30)" stroke="rgb(33,29,30)" stroke-width="1" opacity="0.7058823529411765" d="M 283.5 429 L 287 429.5 L 283.5 430 L 283.5 429 Z "/>
  <path fill="rgb(33,29,30)" stroke="rgb(33,29,30)" stroke-width="1" opacity="0.7058823529411765" d="M 231.5 430 L 236 430.5 L 231.5 431 L 231.5 430 Z "/>
  <path fill="rgb(33,29,30)" stroke="rgb(33,29,30)" stroke-width="1" opacity="0.7058823529411765" d="M 276.5 430 L 281 430.5 L 276.5 431 L 276.5 430 Z "/>
  <path fill="rgb(33,29,30)" stroke="rgb(33,29,30)" stroke-width="1" opacity="0.7058823529411765" d="M 240.5 431 L 250 431.5 L 240.5 432 L 240.5 431 Z "/>
  <path fill="rgb(33,29,30)" stroke="rgb(33,29,30)" stroke-width="1" opacity="0.7058823529411765" d="M 263.5 431 L 273 431.5 L 263.5 432 L 263.5 431 Z "/>
  <path fill="rgb(33,29,30)" stroke="rgb(33,29,30)" stroke-width="1" opacity="0.7058823529411765" d="M 411.5 431 L 414 431.5 L 411.5 432 L 411.5 431 Z "/>
  <path fill="rgb(33,29,30)" stroke="rgb(33,29,30)" stroke-width="1" opacity="0.7058823529411765" d="M 418.5 431 L 421 431.5 L 418.5 432 L 418.5 431 Z "/>
  <path fill="rgb(0,0,0)" stroke="rgb(0,0,0)" stroke-width="1" opacity="0" d="M 0 0 L 512 0 L 512 512 L 0 512 L 0 0 Z M 241 80 L 212 85 L 184 95 Q 155 108 135 128 Q 110 151 95 184 L 85 212 L 80 241 L 80 272 L 81 273 L 81 281 L 85 301 L 90 317 Q 104 353 129 379 Q 152 402 184 417 L 212 427 L 241 432 L 273 432 L 274 431 L 281 431 L 297 428 L 317 422 L 336 413 L 412 432 Q 420 434 425 430 L 432 421 L 432 412 L 413 339 L 413 336 L 420 322 L 427 301 L 432 272 L 432 241 L 431 240 L 431 232 L 427 212 L 422 196 Q 408 159 383 134 Q 356 105 317 90 L 297 84 L 281 81 L 273 81 L 272 80 L 241 80 Z "/>
  <path fill="rgb(0,0,0)" stroke="rgb(0,0,0)" stroke-width="1" opacity="0" d="M 249.5 112 L 262.5 112 L 263.5 113 L 280.5 114 Q 297.5 117 311.5 123 Q 341.4 136.1 362 158.5 Q 380.3 178.2 391 205.5 L 398 231.5 L 399 247.5 L 400 248.5 L 400 262.5 L 399 263.5 L 398 280.5 L 395 293.5 Q 389.7 313.2 380 328.5 L 379 336.5 L 393 393 L 336.5 379 L 332.5 379 L 313.5 388 L 293.5 395 L 273.5 399 L 248.5 400 L 247.5 399 L 238.5 399 L 237.5 398 L 226.5 397 L 200.5 389 Q 170.6 375.9 150 353.5 Q 131.7 333.8 121 306.5 L 114 280.5 L 113 264.5 L 112 263.5 L 112 248.5 L 113 247.5 L 113 238.5 L 116 221.5 L 123 200.5 Q 136.1 170.6 158.5 150 Q 176.4 133.4 200.5 123 L 226.5 115 L 237.5 114 L 238.5 113 L 248.5 113 L 249.5 112 Z "/>
  <path fill="rgb(35,31,32)" stroke="rgb(35,31,32)" stroke-width="1" opacity="1" d="M 250.5 80 L 283.5 82 L 305.5 87 L 322.5 93 Q 360.4 109.1 386 137.5 Q 408.2 161.3 421 194.5 L 425 206.5 L 430 229.5 L 432 262.5 L 431 263.5 L 430 282.5 L 426 301.5 Q 420.7 321.2 412 337.5 L 422 377.5 L 424 381.5 L 432 417.5 Q 430.8 424.3 426.5 428 Q 422.5 432 414.5 432 L 336.5 412 L 314.5 422 L 293.5 428 L 276.5 430 L 275.5 431 L 250.5 432 L 249.5 431 L 236.5 431 L 235.5 430 L 218.5 428 Q 197.6 423.4 180.5 415 Q 148.5 399.5 126 374.5 Q 104 350.5 91 317.5 L 87 305.5 L 82 282.5 L 80 250.5 L 81 249.5 L 81 236.5 L 82 235.5 L 84 218.5 Q 88.6 197.6 97 180.5 Q 112.5 148.5 137.5 126 Q 159.5 105.5 189.5 93 L 218.5 84 L 235.5 82 L 236.5 81 L 249.5 81 L 250.5 80 Z M 241 112 L 220 116 L 202 122 Q 181 131 165 144 Q 142 162 128 189 L 117 216 L 112 241 L 112 272 L 117 297 Q 126 326 144 348 Q 162 370 189 384 L 213 394 L 241 400 L 271 400 L 272 399 L 289 397 Q 312 391 331 380 L 339 380 L 394 394 L 380 339 L 381 328 L 386 320 L 394 300 L 400 271 L 400 241 L 399 240 L 398 228 L 392 207 L 380 182 L 358 153 L 331 132 L 306 120 L 285 114 L 273 113 L 272 112 L 241 112 Z "/>
</svg>