<svg class="svg-icon" style="width: 1em; height: 1em;vertical-align: middle;fill: currentColor;overflow: hidden;" viewBox="0 0 1024 1024" version="1.1" xmlns="http://www.w3.org/2000/svg"><path d="M192 512c0 35.2 28.8 64 64 64s64-28.8 64-64-28.8-64-64-64-64 28.8-64 64z m255.99999999 0c0 35.2 28.8 64 64.00000001 64.00000001s64-28.8 64.00000001-64.00000001-28.8-64-64.00000001-64.00000001-64 28.8-64.00000001 64.00000001z m256.00000001 0c0 35.2 28.8 64 64 64s64-28.8 64-64-28.8-64-64-64-64 28.8-64 64z" fill="" /></svg>