<svg version="1.1" xmlns="http://www.w3.org/2000/svg" xmlns:xlink="http://www.w3.org/1999/xlink" width="256.000000pt" height="256.000000pt" viewBox="0,0,256,256"><g fill="#ffffff" fill-rule="nonzero" stroke="none" stroke-width="1" stroke-linecap="butt" stroke-linejoin="miter" stroke-miterlimit="10" stroke-dasharray="" stroke-dashoffset="0" font-family="none" font-weight="none" font-size="none" text-anchor="none" style="mix-blend-mode: normal"><g transform="translate(-0.10709,0.02555)"><g transform="translate(0,256) scale(0.1,-0.1)"><path d="M965,2227c-58,-15 -138,-98 -153,-159c-16,-64 -17,-1190 -1,-1253c14,-54 67,-118 123,-148c40,-22 49,-22 476,-25c515,-4 520,-3 595,72c38,38 55,63 63,98c17,66 17,1190 0,1256c-16,65 -95,144 -160,160c-61,15 -884,15 -943,-1zM1895,2055l25,-24v-591v-591l-25,-24l-24,-25h-431h-431l-24,25l-25,24v591v591l25,24l24,25h431h431z"></path><path d="M605,1888c-36,-19 -76,-62 -98,-103c-22,-39 -22,-50 -25,-528c-2,-309 1,-509 8,-545c34,-188 195,-349 382,-383c35,-6 187,-9 385,-7c359,3 358,3 426,67c26,23 57,71 57,86c0,3 -171,5 -379,5c-350,0 -384,2 -442,20c-119,37 -222,140 -259,259c-19,60 -20,93 -20,602c0,296 -3,539 -7,539c-5,0 -17,-6 -28,-12z"></path></g></g></g></svg>