<?xml version="1.0" encoding="utf-8"?>
<!-- Generator: Adobe Illustrator 21.0.0, SVG Export Plug-In . SVG Version: 6.00 Build 0)  -->
<svg version="1.1" id="Layer_1" xmlns="http://www.w3.org/2000/svg" xmlns:xlink="http://www.w3.org/1999/xlink" x="0px" y="0px"
	 viewBox="0 0 512 512" style="enable-background:new 0 0 512 512;" xml:space="preserve">
<g>
	<path d="M141.2,17.7v123.6h35.3V53h35.3v17.7h35.3V53h158.9v17.7h35.3V53h35.3v211.9h-35.3v-17.7h-35.3v53H512V17.7H141.2z
		 M211.9,105.9v35.3h35.3v-35.3H211.9z M406.1,105.9v35.3h35.3v-35.3H406.1z M0,176.6v317.8h370.8V176.6H0z M406.1,176.6v35.3h35.3
		v-35.3H406.1z M35.3,211.9h300.1v172.7l-45.8-45.8L277,326.6l-49.7,49.7l-75.6-76.1l-12.1-12.7L35.3,391.7V211.9z M238.3,247.2
		c-14.6,0-26.5,11.8-26.5,26.5c0,14.6,11.8,26.5,26.5,26.5c14.6,0,26.5-11.8,26.5-26.5C264.8,259,253,247.2,238.3,247.2z
		 M139.6,337.7l88.3,88.3l12.2-12.7l37-37l58.5,58.5V459H35.3v-17.1L139.6,337.7z"/>
</g>
</svg>
